millimetreA 01.ufo
<glyph name="numbersign" format="1">
  <advance width="400"/>
  <unicode hex="0023"/>
  <outline>
    <contour>
      <point x="0" y="0" type="line"/>
      <point x="100" y="0" type="line"/>
      <point x="200" y="700" type="line"/>
      <point x="100" y="700" type="line"/>
    </contour>
    <contour>
      <point x="200" y="0" type="line"/>
      <point x="300" y="0" type="line"/>
      <point x="400" y="700" type="line"/>
      <point x="300" y="700" type="line"/>
    </contour>
    <contour>
      <point x="0" y="400" type="line"/>
      <point x="400" y="400" type="line"/>
      <point x="400" y="500" type="line"/>
      <point x="0" y="500" type="line"/>
    </contour>
    <contour>
      <point x="0" y="200" type="line"/>
      <point x="400" y="200" type="line"/>
      <point x="400" y="300" type="line"/>
      <point x="0" y="300" type="line"/>
    </contour>
  </outline>
</glyph>
<glyph name="ampersand" format="1">
  <advance width="400"/>
  <unicode hex="0026"/>
  <outline>
    <contour>
      <point x="350" y="140" type="curve" smooth="yes"/>
      <point x="350" y="400" type="line"/>
      <point x="250" y="400" type="line"/>
      <point x="250" y="140" type="line" smooth="yes"/>
      <point x="250" y="100"/>
      <point x="230" y="90"/>
      <point x="200" y="90" type="curve"/>
      <point x="170" y="90"/>
      <point x="150" y="100"/>
      <point x="150" y="140" type="curve" smooth="yes"/>
      <point x="150" y="350" type="line" smooth="yes"/>
      <point x="150" y="390"/>
      <point x="170" y="400"/>
      <point x="200" y="400" type="curve"/>
      <point x="400" y="400" type="line"/>
      <point x="400" y="500" type="line"/>
      <point x="200" y="500" type="line" smooth="yes"/>
      <point x="170" y="500"/>
      <point x="150" y="510"/>
      <point x="150" y="550" type="curve" smooth="yes"/>
      <point x="150" y="560" type="line" smooth="yes"/>
      <point x="150" y="600"/>
      <point x="170" y="610"/>
      <point x="200" y="610" type="curve"/>
      <point x="230" y="610"/>
      <point x="250" y="600"/>
      <point x="250" y="560" type="curve" smooth="yes"/>
      <point x="250" y="550" type="line" smooth="yes"/>
      <point x="350" y="550" type="line"/>
      <point x="350" y="560" type="line"/>
      <point x="350" y="660"/>
      <point x="290" y="710"/>
      <point x="200" y="710" type="curve"/>
      <point x="120" y="710"/>
      <point x="50" y="650"/>
      <point x="50" y="560" type="curve"/>
      <point x="50" y="550" type="line"/>
      <point x="50" y="510"/>
      <point x="70" y="470"/>
      <point x="110" y="450" type="curve"/>
      <point x="70" y="430"/>
      <point x="50" y="400"/>
      <point x="50" y="350" type="curve"/>
      <point x="50" y="140" type="line"/>
      <point x="50" y="50"/>
      <point x="120" y="-10"/>
      <point x="200" y="-10" type="curve"/>
      <point x="280" y="-10"/>
      <point x="350" y="50"/>
    </contour>
  </outline>
</glyph>
<glyph name="parenleft" format="1">
  <advance width="200"/>
  <unicode hex="0028"/>
  <outline>
    <contour>
      <point x="50" y="560" type="curve"/>
      <point x="50" y="-10" type="line"/>
      <point x="50" y="-100"/>
      <point x="120" y="-160"/>
      <point x="200" y="-160" type="curve"/>
      <point x="200" y="-60" type="line"/>
      <point x="170" y="-60"/>
      <point x="150" y="-50"/>
      <point x="150" y="-10" type="curve" smooth="yes"/>
      <point x="150" y="560" type="line" smooth="yes"/>
      <point x="150" y="600"/>
      <point x="170" y="610"/>
      <point x="200" y="610" type="curve"/>
      <point x="200" y="710" type="line"/>
      <point x="120" y="710"/>
      <point x="50" y="650"/>
    </contour>
  </outline>
</glyph>
<glyph name="parenright" format="1">
  <advance width="200"/>
  <unicode hex="0029"/>
  <outline>
    <contour>
      <point x="150" y="560" type="line"/>
      <point x="150" y="650"/>
      <point x="80" y="710"/>
      <point x="0" y="710" type="curve"/>
      <point x="0" y="610" type="line"/>
      <point x="30" y="610"/>
      <point x="50" y="600"/>
      <point x="50" y="560" type="curve" smooth="yes"/>
      <point x="50" y="-10" type="line" smooth="yes"/>
      <point x="50" y="-50"/>
      <point x="30" y="-60"/>
      <point x="0" y="-60" type="curve"/>
      <point x="0" y="-160" type="line"/>
      <point x="80" y="-160"/>
      <point x="150" y="-100"/>
      <point x="150" y="-10" type="curve"/>
    </contour>
  </outline>
</glyph>
<glyph name="zero" format="1">
  <advance width="600"/>
  <unicode hex="0030"/>
  <outline>
    <contour>
      <point x="330" y="700" type="curve" smooth="yes"/>
      <point x="300" y="700" type="line"/>
      <point x="300" y="600" type="line"/>
      <point x="430" y="600"/>
      <point x="450" y="580"/>
      <point x="450" y="460" type="curve" smooth="yes"/>
      <point x="450" y="350" type="line"/>
      <point x="550" y="350" type="line"/>
      <point x="550" y="480" type="line"/>
      <point x="550" y="630"/>
      <point x="470" y="700"/>
    </contour>
    <contour>
      <point x="270" y="700" type="line" smooth="yes"/>
      <point x="130" y="700"/>
      <point x="50" y="630"/>
      <point x="50" y="480" type="curve"/>
      <point x="50" y="350" type="line"/>
      <point x="150" y="350" type="line"/>
      <point x="150" y="460" type="line" smooth="yes"/>
      <point x="150" y="580"/>
      <point x="170" y="600"/>
      <point x="300" y="600" type="curve"/>
      <point x="300" y="700" type="line"/>
    </contour>
    <contour>
      <point x="330" y="0" type="line" smooth="yes"/>
      <point x="470" y="0"/>
      <point x="550" y="70"/>
      <point x="550" y="220" type="curve"/>
      <point x="550" y="350" type="line"/>
      <point x="450" y="350" type="line"/>
      <point x="450" y="240" type="line" smooth="yes"/>
      <point x="450" y="120"/>
      <point x="430" y="100"/>
      <point x="300" y="100" type="curve"/>
      <point x="300" y="0" type="line"/>
    </contour>
    <contour>
      <point x="270" y="0" type="curve" smooth="yes"/>
      <point x="300" y="0" type="line"/>
      <point x="300" y="100" type="line"/>
      <point x="170" y="100"/>
      <point x="150" y="120"/>
      <point x="150" y="240" type="curve" smooth="yes"/>
      <point x="150" y="350" type="line"/>
      <point x="50" y="350" type="line"/>
      <point x="50" y="220" type="line"/>
      <point x="50" y="70"/>
      <point x="130" y="0"/>
    </contour>
  </outline>
</glyph>
<glyph name="three" format="1">
  <advance width="400"/>
  <unicode hex="0033"/>
  <outline>
    <contour>
      <point x="350" y="550" type="curve"/>
      <point x="350" y="560" type="line"/>
      <point x="350" y="650"/>
      <point x="280" y="710"/>
      <point x="200" y="710" type="curve" smooth="yes"/>
      <point x="110" y="710"/>
      <point x="50" y="660"/>
      <point x="50" y="570" type="curve"/>
      <point x="50" y="550" type="line"/>
      <point x="150" y="550" type="line"/>
      <point x="150" y="570" type="line"/>
      <point x="150" y="610"/>
      <point x="170" y="610"/>
      <point x="200" y="610" type="curve" smooth="yes"/>
      <point x="230" y="610"/>
      <point x="250" y="600"/>
      <point x="250" y="560" type="curve" smooth="yes"/>
      <point x="250" y="550" type="line" smooth="yes"/>
      <point x="250" y="510"/>
      <point x="230" y="500"/>
      <point x="200" y="500" type="curve"/>
      <point x="150" y="500" type="line"/>
      <point x="150" y="400" type="line"/>
      <point x="200" y="400" type="line"/>
      <point x="280" y="400"/>
      <point x="350" y="460"/>
    </contour>
    <contour>
      <point x="200" y="-10" type="curve" smooth="yes"/>
      <point x="280" y="-10"/>
      <point x="350" y="50"/>
      <point x="350" y="140" type="curve"/>
      <point x="350" y="350" type="line"/>
      <point x="350" y="440"/>
      <point x="280" y="500"/>
      <point x="200" y="500" type="curve"/>
      <point x="50" y="500" type="line"/>
      <point x="50" y="400" type="line"/>
      <point x="200" y="400" type="line"/>
      <point x="230" y="400"/>
      <point x="250" y="390"/>
      <point x="250" y="350" type="curve" smooth="yes"/>
      <point x="250" y="140" type="line" smooth="yes"/>
      <point x="250" y="100"/>
      <point x="230" y="90"/>
      <point x="200" y="90" type="curve" smooth="yes"/>
      <point x="170" y="90"/>
      <point x="150" y="90"/>
      <point x="150" y="130" type="curve"/>
      <point x="150" y="250" type="line"/>
      <point x="50" y="250" type="line"/>
      <point x="50" y="130" type="line"/>
      <point x="50" y="40"/>
      <point x="110" y="-10"/>
    </contour>
  </outline>
</glyph>
<glyph name="four" format="1">
  <advance width="400"/>
  <unicode hex="0034"/>
  <outline>
    <contour>
      <point x="50" y="200" type="line"/>
      <point x="350" y="200" type="line"/>
      <point x="350" y="300" type="line"/>
      <point x="90" y="300" type="line"/>
      <point x="50" y="270" type="line"/>
    </contour>
    <contour>
      <point x="130" y="220" type="line"/>
      <point x="350" y="700" type="line" smooth="yes"/>
      <point x="240" y="700" type="line"/>
      <point x="50" y="270" type="line"/>
    </contour>
    <contour>
      <point x="350" y="0" type="line"/>
      <point x="350" y="400" type="line"/>
      <point x="300" y="400" type="line"/>
      <point x="300" y="370"/>
      <point x="280" y="350"/>
      <point x="250" y="350" type="curve"/>
      <point x="250" y="0" type="line"/>
    </contour>
  </outline>
</glyph>
<glyph name="seven" format="1">
  <advance width="600"/>
  <unicode hex="0037"/>
  <outline>
    <contour>
      <point x="50" y="600" type="line"/>
      <point x="510" y="600" type="line"/>
      <point x="550" y="630" type="line"/>
      <point x="550" y="700" type="line"/>
      <point x="50" y="700" type="line"/>
    </contour>
    <contour>
      <point x="50" y="200" type="line"/>
      <point x="450" y="200" type="line"/>
      <point x="450" y="300" type="line"/>
      <point x="50" y="300" type="line"/>
    </contour>
    <contour>
      <point x="170" y="0" type="line"/>
      <point x="550" y="630" type="line"/>
      <point x="480" y="700" type="line"/>
      <point x="60" y="0" type="line"/>
    </contour>
  </outline>
</glyph>
<glyph name="D" format="1">
  <advance width="400"/>
  <unicode hex="0044"/>
  <outline>
    <contour>
      <point x="200" y="700" type="curve"/>
      <point x="110" y="700" type="line"/>
      <point x="110" y="600" type="line"/>
      <point x="200" y="600" type="line"/>
      <point x="230" y="600"/>
      <point x="250" y="590"/>
      <point x="250" y="550" type="curve" smooth="yes"/>
      <point x="250" y="240" type="line"/>
      <point x="350" y="240" type="line"/>
      <point x="350" y="550" type="line"/>
      <point x="350" y="640"/>
      <point x="280" y="700"/>
    </contour>
    <contour>
      <point x="200" y="100" type="curve"/>
      <point x="130" y="100" type="line"/>
      <point x="100" y="0" type="line"/>
      <point x="200" y="0" type="line"/>
      <point x="280" y="0"/>
      <point x="350" y="60"/>
      <point x="350" y="150" type="curve"/>
      <point x="350" y="260" type="line"/>
      <point x="250" y="260" type="line"/>
      <point x="250" y="150" type="line" smooth="yes"/>
      <point x="250" y="110"/>
      <point x="230" y="100"/>
    </contour>
    <contour>
      <point x="150" y="0" type="line"/>
      <point x="150" y="700" type="line"/>
      <point x="50" y="700" type="line"/>
      <point x="50" y="0" type="line"/>
    </contour>
  </outline>
</glyph>
<glyph name="P" format="1">
  <advance width="600"/>
  <unicode hex="0050"/>
  <outline>
    <contour>
      <point x="150" y="700" type="line"/>
      <point x="50" y="700" type="line"/>
      <point x="50" y="0" type="line"/>
      <point x="150" y="0" type="line"/>
    </contour>
    <contour>
      <point x="330" y="200" type="line" smooth="yes"/>
      <point x="470" y="200"/>
      <point x="550" y="270"/>
      <point x="550" y="420" type="curve"/>
      <point x="550" y="450" type="line"/>
      <point x="450" y="450" type="line"/>
      <point x="450" y="440" type="line" smooth="yes"/>
      <point x="450" y="320"/>
      <point x="410" y="300"/>
      <point x="300" y="300" type="curve"/>
      <point x="110" y="300" type="line"/>
      <point x="110" y="200" type="line"/>
    </contour>
    <contour>
      <point x="330" y="700" type="curve" smooth="yes"/>
      <point x="110" y="700" type="line"/>
      <point x="110" y="600" type="line"/>
      <point x="300" y="600" type="line"/>
      <point x="410" y="600"/>
      <point x="450" y="580"/>
      <point x="450" y="460" type="curve" smooth="yes"/>
      <point x="450" y="450" type="line"/>
      <point x="550" y="450" type="line"/>
      <point x="550" y="480" type="line"/>
      <point x="550" y="630"/>
      <point x="470" y="700"/>
    </contour>
  </outline>
</glyph>
<glyph name="S" format="1">
  <advance width="600"/>
  <unicode hex="0053"/>
  <outline>
    <contour>
      <point x="300" y="100" type="curve"/>
      <point x="190" y="100"/>
      <point x="150" y="120"/>
      <point x="150" y="240" type="curve" smooth="yes"/>
      <point x="150" y="250" type="line"/>
      <point x="50" y="250" type="line"/>
      <point x="50" y="220" type="line"/>
      <point x="50" y="70"/>
      <point x="130" y="0"/>
      <point x="270" y="0" type="curve" smooth="yes"/>
      <point x="300" y="0" type="line"/>
      <point x="480" y="0"/>
      <point x="550" y="80"/>
      <point x="550" y="190" type="curve"/>
      <point x="550" y="450"/>
      <point x="150" y="340"/>
      <point x="150" y="520" type="curve" smooth="yes"/>
      <point x="150" y="570"/>
      <point x="170" y="600"/>
      <point x="300" y="600" type="curve"/>
      <point x="410" y="600"/>
      <point x="450" y="580"/>
      <point x="450" y="460" type="curve" smooth="yes"/>
      <point x="450" y="450" type="line"/>
      <point x="550" y="450" type="line"/>
      <point x="550" y="480" type="line"/>
      <point x="550" y="630"/>
      <point x="470" y="700"/>
      <point x="330" y="700" type="curve" smooth="yes"/>
      <point x="300" y="700" type="line"/>
      <point x="120" y="700"/>
      <point x="50" y="620"/>
      <point x="50" y="510" type="curve" smooth="yes"/>
      <point x="50" y="250"/>
      <point x="450" y="360"/>
      <point x="450" y="180" type="curve" smooth="yes"/>
      <point x="450" y="130"/>
      <point x="430" y="100"/>
    </contour>
  </outline>
</glyph>
<glyph name="U" format="1">
  <advance width="400"/>
  <unicode hex="0055"/>
  <outline>
    <contour>
      <point x="250" y="700" type="move"/>
      <point x="250" y="140" type="line" smooth="yes"/>
      <point x="250" y="100"/>
      <point x="230" y="90"/>
      <point x="200" y="90" type="curve"/>
      <point x="170" y="90"/>
      <point x="150" y="100"/>
      <point x="150" y="140" type="curve" smooth="yes"/>
      <point x="150" y="700" type="line" smooth="yes"/>
      <point x="50" y="700" type="line"/>
    </contour>
    <contour>
      <point x="50" y="700" type="move"/>
      <point x="50" y="140" type="line"/>
      <point x="50" y="50"/>
      <point x="120" y="-10"/>
      <point x="200" y="-10" type="curve"/>
      <point x="280" y="-10"/>
      <point x="350" y="50"/>
      <point x="350" y="140" type="curve" smooth="yes"/>
      <point x="350" y="700" type="line"/>
      <point x="250" y="700" type="line"/>
    </contour>
  </outline>
</glyph>
<glyph name="Y" format="1">
  <advance width="400"/>
  <unicode hex="0059"/>
  <outline>
    <contour>
      <point x="150" y="250" type="curve"/>
      <point x="240" y="280" type="line"/>
      <point x="180" y="380"/>
      <point x="150" y="480"/>
      <point x="150" y="600" type="curve" smooth="yes"/>
      <point x="150" y="700" type="line"/>
      <point x="50" y="700" type="line"/>
      <point x="50" y="600" type="line" smooth="yes"/>
      <point x="50" y="490"/>
      <point x="90" y="350"/>
    </contour>
    <contour>
      <point x="250" y="250" type="line"/>
      <point x="310" y="350"/>
      <point x="350" y="490"/>
      <point x="350" y="600" type="curve" smooth="yes"/>
      <point x="350" y="700" type="line"/>
      <point x="250" y="700" type="line"/>
      <point x="250" y="600" type="line" smooth="yes"/>
      <point x="250" y="480"/>
      <point x="220" y="380"/>
      <point x="160" y="280" type="curve"/>
      <point x="150" y="250" type="line"/>
    </contour>
    <contour>
      <point x="150" y="0" type="line"/>
      <point x="250" y="0" type="line"/>
      <point x="250" y="280" type="line"/>
      <point x="150" y="280" type="line"/>
    </contour>
    <contour>
      <point x="50" y="0" type="line"/>
      <point x="350" y="0" type="line"/>
      <point x="350" y="100" type="line"/>
      <point x="50" y="100" type="line"/>
    </contour>
  </outline>
</glyph>
<glyph name="a" format="1">
  <advance width="600"/>
  <unicode hex="0061"/>
  <outline>
    <contour>
      <point x="50" y="350" type="curve"/>
      <point x="50" y="330" type="line"/>
      <point x="150" y="330" type="line"/>
      <point x="150" y="350" type="line"/>
      <point x="150" y="400"/>
      <point x="170" y="410"/>
      <point x="300" y="410" type="curve" smooth="yes"/>
      <point x="430" y="410"/>
      <point x="450" y="390"/>
      <point x="450" y="330" type="curve" smooth="yes"/>
      <point x="450" y="220" type="line"/>
      <point x="550" y="250" type="line"/>
      <point x="550" y="330" type="line"/>
      <point x="550" y="440"/>
      <point x="480" y="510"/>
      <point x="300" y="510" type="curve" smooth="yes"/>
      <point x="110" y="510"/>
      <point x="50" y="450"/>
    </contour>
    <contour>
      <point x="550" y="250" type="line"/>
      <point x="450" y="250" type="line"/>
      <point x="450" y="70" type="line"/>
      <point x="460" y="0" type="line"/>
      <point x="550" y="0" type="line"/>
    </contour>
    <contour>
      <point x="40" y="140" type="curve"/>
      <point x="40" y="30"/>
      <point x="110" y="-10"/>
      <point x="260" y="-10" type="curve" smooth="yes"/>
      <point x="360" y="-10"/>
      <point x="420" y="20"/>
      <point x="450" y="70" type="curve"/>
      <point x="450" y="180" type="line"/>
      <point x="450" y="110"/>
      <point x="420" y="90"/>
      <point x="260" y="90" type="curve"/>
      <point x="160" y="90"/>
      <point x="140" y="100"/>
      <point x="140" y="140" type="curve"/>
      <point x="140" y="190"/>
      <point x="190" y="200"/>
      <point x="450" y="210" type="curve"/>
      <point x="450" y="300" type="line"/>
      <point x="130" y="290"/>
      <point x="40" y="260"/>
    </contour>
  </outline>
</glyph>
<glyph name="c" format="1">
  <advance width="400"/>
  <unicode hex="0063"/>
  <outline>
    <contour>
      <point x="350" y="370" type="line"/>
      <point x="350" y="460"/>
      <point x="290" y="510"/>
      <point x="200" y="510" type="curve" smooth="yes"/>
      <point x="120" y="510"/>
      <point x="50" y="450"/>
      <point x="50" y="360" type="curve"/>
      <point x="50" y="250" type="line"/>
      <point x="150" y="250" type="line"/>
      <point x="150" y="360" type="line" smooth="yes"/>
      <point x="150" y="400"/>
      <point x="170" y="410"/>
      <point x="200" y="410" type="curve" smooth="yes"/>
      <point x="230" y="410"/>
      <point x="250" y="410"/>
      <point x="250" y="370" type="curve"/>
      <point x="250" y="350" type="line"/>
      <point x="350" y="350" type="line"/>
    </contour>
    <contour>
      <point x="350" y="130" type="curve"/>
      <point x="350" y="150" type="line"/>
      <point x="250" y="150" type="line"/>
      <point x="250" y="130" type="line"/>
      <point x="250" y="90"/>
      <point x="230" y="90"/>
      <point x="200" y="90" type="curve" smooth="yes"/>
      <point x="170" y="90"/>
      <point x="150" y="100"/>
      <point x="150" y="140" type="curve" smooth="yes"/>
      <point x="150" y="250" type="line"/>
      <point x="50" y="250" type="line"/>
      <point x="50" y="140" type="line"/>
      <point x="50" y="50"/>
      <point x="120" y="-10"/>
      <point x="200" y="-10" type="curve" smooth="yes"/>
      <point x="290" y="-10"/>
      <point x="350" y="40"/>
    </contour>
  </outline>
</glyph>
<glyph name="f" format="1">
  <advance width="400"/>
  <unicode hex="0066"/>
  <outline>
    <contour>
      <point x="0" y="200" type="line"/>
      <point x="350" y="200" type="line"/>
      <point x="350" y="300" type="line"/>
      <point x="0" y="300" type="line"/>
    </contour>
    <contour>
      <point x="350" y="480" type="curve" smooth="yes"/>
      <point x="350" y="560" type="line"/>
      <point x="350" y="650"/>
      <point x="280" y="710"/>
      <point x="200" y="710" type="curve"/>
      <point x="120" y="710"/>
      <point x="50" y="650"/>
      <point x="50" y="560" type="curve"/>
      <point x="50" y="0" type="line"/>
      <point x="150" y="0" type="line"/>
      <point x="150" y="560" type="line"/>
      <point x="150" y="600"/>
      <point x="170" y="610"/>
      <point x="200" y="610" type="curve"/>
      <point x="230" y="610"/>
      <point x="250" y="600"/>
      <point x="250" y="560" type="curve" smooth="yes"/>
      <point x="250" y="480" type="line" smooth="yes"/>
      <point x="250" y="350"/>
      <point x="220" y="300"/>
      <point x="150" y="300" type="curve"/>
      <point x="250" y="300" type="line"/>
      <point x="300" y="310"/>
      <point x="350" y="350"/>
    </contour>
  </outline>
</glyph>
<glyph name="h" format="1">
  <advance width="600"/>
  <unicode hex="0068"/>
  <outline>
    <contour>
      <point x="50" y="0" type="line"/>
      <point x="150" y="0" type="line"/>
      <point x="150" y="420" type="line"/>
      <point x="150" y="700" type="line"/>
      <point x="50" y="700" type="line"/>
    </contour>
    <contour>
      <point x="150" y="420" type="curve"/>
      <point x="150" y="260" type="line"/>
      <point x="150" y="360"/>
      <point x="170" y="410"/>
      <point x="300" y="410" type="curve" smooth="yes"/>
      <point x="410" y="410"/>
      <point x="450" y="380"/>
      <point x="450" y="260" type="curve"/>
      <point x="450" y="0" type="line"/>
      <point x="550" y="0" type="line"/>
      <point x="550" y="290" type="line"/>
      <point x="550" y="440"/>
      <point x="480" y="510"/>
      <point x="330" y="510" type="curve" smooth="yes"/>
      <point x="210" y="510"/>
      <point x="160" y="470"/>
    </contour>
  </outline>
</glyph>
<glyph name="k" format="1">
  <advance width="400"/>
  <unicode hex="006B"/>
  <outline>
    <contour>
      <point x="50" y="0" type="line"/>
      <point x="150" y="0" type="line"/>
      <point x="150" y="700" type="line"/>
      <point x="50" y="700" type="line"/>
    </contour>
    <contour>
      <point x="130" y="200" type="line"/>
      <point x="200" y="200" type="line"/>
      <point x="200" y="300" type="line"/>
      <point x="130" y="300" type="line"/>
    </contour>
    <contour>
      <point x="190" y="240" type="line"/>
      <point x="320" y="260"/>
      <point x="350" y="310"/>
      <point x="350" y="450" type="curve" smooth="yes"/>
      <point x="350" y="500" type="line"/>
      <point x="250" y="500" type="line"/>
      <point x="250" y="450" type="line" smooth="yes"/>
      <point x="250" y="350"/>
      <point x="220" y="300"/>
      <point x="160" y="300" type="curve"/>
      <point x="170" y="250" type="line"/>
    </contour>
    <contour>
      <point x="190" y="260" type="curve"/>
      <point x="150" y="250" type="line"/>
      <point x="160" y="200" type="line"/>
      <point x="220" y="200"/>
      <point x="250" y="150"/>
      <point x="250" y="50" type="curve" smooth="yes"/>
      <point x="250" y="0" type="line"/>
      <point x="350" y="0" type="line"/>
      <point x="350" y="50" type="line" smooth="yes"/>
      <point x="350" y="190"/>
      <point x="320" y="240"/>
    </contour>
  </outline>
</glyph>
<glyph name="o" format="1">
  <advance width="600"/>
  <unicode hex="006F"/>
  <outline>
    <contour>
      <point x="300" y="410" type="curve"/>
      <point x="435" y="410"/>
      <point x="455" y="370"/>
      <point x="455" y="290" type="curve" smooth="yes"/>
      <point x="455" y="250" type="line"/>
      <point x="555" y="250" type="line"/>
      <point x="555" y="290" type="line"/>
      <point x="555" y="420"/>
      <point x="495" y="510"/>
      <point x="300" y="510" type="curve"/>
      <point x="105" y="510"/>
      <point x="45" y="420"/>
      <point x="45" y="290" type="curve"/>
      <point x="45" y="250" type="line"/>
      <point x="145" y="250" type="line"/>
      <point x="145" y="290" type="line" smooth="yes"/>
      <point x="145" y="370"/>
      <point x="165" y="410"/>
    </contour>
    <contour>
      <point x="300" y="90" type="curve"/>
      <point x="165" y="90"/>
      <point x="145" y="130"/>
      <point x="145" y="210" type="curve" smooth="yes"/>
      <point x="145" y="250" type="line"/>
      <point x="45" y="250" type="line"/>
      <point x="45" y="210" type="line"/>
      <point x="45" y="80"/>
      <point x="105" y="-10"/>
      <point x="300" y="-10" type="curve"/>
      <point x="495" y="-10"/>
      <point x="555" y="80"/>
      <point x="555" y="210" type="curve"/>
      <point x="555" y="250" type="line"/>
      <point x="455" y="250" type="line"/>
      <point x="455" y="210" type="line" smooth="yes"/>
      <point x="455" y="130"/>
      <point x="435" y="90"/>
    </contour>
    <contour>
      <point x="300.0" y="500.0" type="move" name="top"/>
    </contour>
  </outline>
</glyph>
<glyph name="r" format="1">
  <advance width="400"/>
  <unicode hex="0072"/>
  <outline>
    <contour>
      <point x="50" y="0" type="line"/>
      <point x="150" y="0" type="line"/>
      <point x="150" y="420" type="line"/>
      <point x="140" y="500" type="line"/>
      <point x="50" y="500" type="line"/>
    </contour>
    <contour>
      <point x="150" y="420" type="curve"/>
      <point x="150" y="260" type="line"/>
      <point x="150" y="360"/>
      <point x="170" y="400"/>
      <point x="300" y="400" type="curve"/>
      <point x="400" y="400" type="line"/>
      <point x="400" y="500" type="line"/>
      <point x="330" y="500" type="line"/>
      <point x="210" y="500"/>
      <point x="160" y="470"/>
    </contour>
  </outline>
</glyph>
<glyph name="s" format="1">
  <advance width="600"/>
  <unicode hex="0073"/>
  <outline>
    <contour>
      <point x="560" y="150" type="curve"/>
      <point x="560" y="240"/>
      <point x="500" y="280"/>
      <point x="300" y="300" type="curve" smooth="yes"/>
      <point x="200" y="310"/>
      <point x="140" y="320"/>
      <point x="140" y="360" type="curve" smooth="yes"/>
      <point x="140" y="400"/>
      <point x="170" y="410"/>
      <point x="300" y="410" type="curve" smooth="yes"/>
      <point x="430" y="410"/>
      <point x="450" y="400"/>
      <point x="450" y="360" type="curve"/>
      <point x="450" y="340" type="line"/>
      <point x="550" y="340" type="line"/>
      <point x="550" y="370" type="line"/>
      <point x="550" y="460"/>
      <point x="490" y="510"/>
      <point x="300" y="510" type="curve" smooth="yes"/>
      <point x="120" y="510"/>
      <point x="40" y="450"/>
      <point x="40" y="350" type="curve" smooth="yes"/>
      <point x="40" y="260"/>
      <point x="100" y="220"/>
      <point x="300" y="200" type="curve" smooth="yes"/>
      <point x="400" y="190"/>
      <point x="460" y="180"/>
      <point x="460" y="140" type="curve" smooth="yes"/>
      <point x="460" y="100"/>
      <point x="430" y="90"/>
      <point x="300" y="90" type="curve" smooth="yes"/>
      <point x="170" y="90"/>
      <point x="150" y="100"/>
      <point x="150" y="140" type="curve"/>
      <point x="150" y="160" type="line"/>
      <point x="50" y="160" type="line"/>
      <point x="50" y="130" type="line"/>
      <point x="50" y="40"/>
      <point x="110" y="-10"/>
      <point x="300" y="-10" type="curve" smooth="yes"/>
      <point x="480" y="-10"/>
      <point x="560" y="50"/>
    </contour>
  </outline>
</glyph>
<glyph name="u" format="1">
  <advance width="600"/>
  <unicode hex="0075"/>
  <outline>
    <contour>
      <point x="550" y="510" type="line"/>
      <point x="450" y="510" type="line"/>
      <point x="450" y="90" type="line"/>
      <point x="460" y="10" type="line"/>
      <point x="550" y="10" type="line"/>
    </contour>
    <contour>
      <point x="450" y="90" type="curve"/>
      <point x="450" y="250" type="line"/>
      <point x="450" y="150"/>
      <point x="430" y="100"/>
      <point x="300" y="100" type="curve" smooth="yes"/>
      <point x="190" y="100"/>
      <point x="150" y="130"/>
      <point x="150" y="250" type="curve"/>
      <point x="150" y="510" type="line"/>
      <point x="50" y="510" type="line"/>
      <point x="50" y="220" type="line"/>
      <point x="50" y="70"/>
      <point x="120" y="0"/>
      <point x="270" y="0" type="curve" smooth="yes"/>
      <point x="390" y="0"/>
      <point x="440" y="40"/>
    </contour>
  </outline>
</glyph>
<glyph name="x" format="1">
  <advance width="600"/>
  <unicode hex="0078"/>
  <outline>
    <contour>
      <point x="280" y="220" type="curve"/>
      <point x="370" y="270" type="line"/>
      <point x="210" y="330"/>
      <point x="150" y="380"/>
      <point x="150" y="450" type="curve" smooth="yes"/>
      <point x="150" y="500" type="line"/>
      <point x="50" y="500" type="line"/>
      <point x="50" y="450" type="line" smooth="yes"/>
      <point x="50" y="370"/>
      <point x="110" y="270"/>
    </contour>
    <contour>
      <point x="320" y="220" type="line"/>
      <point x="490" y="270"/>
      <point x="550" y="370"/>
      <point x="550" y="450" type="curve" smooth="yes"/>
      <point x="550" y="500" type="line"/>
      <point x="450" y="500" type="line"/>
      <point x="450" y="450" type="line" smooth="yes"/>
      <point x="450" y="380"/>
      <point x="390" y="330"/>
      <point x="230" y="270" type="curve"/>
      <point x="310" y="240" type="line"/>
    </contour>
    <contour>
      <point x="280" y="290" type="line"/>
      <point x="110" y="240"/>
      <point x="50" y="130"/>
      <point x="50" y="50" type="curve" smooth="yes"/>
      <point x="50" y="0" type="line"/>
      <point x="150" y="0" type="line"/>
      <point x="150" y="50" type="line" smooth="yes"/>
      <point x="150" y="120"/>
      <point x="210" y="180"/>
      <point x="370" y="240" type="curve"/>
    </contour>
    <contour>
      <point x="320" y="290" type="curve"/>
      <point x="220" y="250" type="line"/>
      <point x="230" y="240" type="line"/>
      <point x="390" y="180"/>
      <point x="450" y="120"/>
      <point x="450" y="50" type="curve" smooth="yes"/>
      <point x="450" y="0" type="line"/>
      <point x="550" y="0" type="line"/>
      <point x="550" y="50" type="line" smooth="yes"/>
      <point x="550" y="130"/>
      <point x="490" y="240"/>
    </contour>
  </outline>
</glyph>
<glyph name="ordfeminine" format="1">
  <advance width="400"/>
  <unicode hex="00AA"/>
  <outline>
    <contour>
      <point x="260" y="560" type="curve" smooth="yes"/>
      <point x="260" y="540" type="line" smooth="yes"/>
      <point x="260" y="500"/>
      <point x="240" y="480"/>
      <point x="200" y="480" type="curve"/>
      <point x="160" y="480"/>
      <point x="140" y="500"/>
      <point x="140" y="540" type="curve" smooth="yes"/>
      <point x="140" y="560" type="line" smooth="yes"/>
      <point x="140" y="600"/>
      <point x="160" y="620"/>
      <point x="200" y="620" type="curve"/>
      <point x="240" y="620"/>
      <point x="260" y="600"/>
    </contour>
    <contour>
      <point x="260" y="400" type="line"/>
      <point x="350" y="400" type="line"/>
      <point x="350" y="700" type="line"/>
      <point x="260" y="700" type="line"/>
      <point x="260" y="660" type="line"/>
      <point x="250" y="660" type="line"/>
      <point x="240" y="690"/>
      <point x="220" y="710"/>
      <point x="180" y="710" type="curve"/>
      <point x="100" y="710"/>
      <point x="50" y="650"/>
      <point x="50" y="560" type="curve"/>
      <point x="50" y="540" type="line"/>
      <point x="50" y="450"/>
      <point x="100" y="390"/>
      <point x="180" y="390" type="curve"/>
      <point x="220" y="390"/>
      <point x="240" y="410"/>
      <point x="250" y="440" type="curve"/>
      <point x="250" y="440"/>
      <point x="260" y="440"/>
      <point x="260" y="440" type="curve"/>
    </contour>
  </outline>
</glyph>
<glyph name="guillemotleft" format="1">
  <advance width="400"/>
  <unicode hex="00AB"/>
  <outline>
    <contour>
      <point x="20" y="250" type="line"/>
      <point x="110" y="250" type="line"/>
      <point x="210" y="400" type="line"/>
      <point x="120" y="400" type="line"/>
    </contour>
    <contour>
      <point x="20" y="250" type="line"/>
      <point x="120" y="100" type="line"/>
      <point x="210" y="100" type="line"/>
      <point x="110" y="250" type="line"/>
    </contour>
    <contour>
      <point x="170" y="250" type="line"/>
      <point x="260" y="250" type="line"/>
      <point x="360" y="400" type="line"/>
      <point x="270" y="400" type="line"/>
    </contour>
    <contour>
      <point x="170" y="250" type="line"/>
      <point x="270" y="100" type="line"/>
      <point x="360" y="100" type="line"/>
      <point x="260" y="250" type="line"/>
    </contour>
  </outline>
</glyph>
<glyph name="plusminus" format="1">
  <advance width="600"/>
  <unicode hex="00B1"/>
  <outline>
    <contour>
      <point x="550" y="200" type="line"/>
      <point x="550" y="300" type="line"/>
      <point x="380" y="300" type="line" smooth="yes"/>
      <point x="350" y="300"/>
      <point x="350" y="290"/>
      <point x="330" y="270" type="curve"/>
      <point x="320" y="280" type="line"/>
      <point x="340" y="300"/>
      <point x="350" y="310"/>
      <point x="350" y="330" type="curve" smooth="yes"/>
      <point x="350" y="500" type="line"/>
      <point x="250" y="500" type="line"/>
      <point x="250" y="330" type="line" smooth="yes"/>
      <point x="250" y="310"/>
      <point x="260" y="300"/>
      <point x="280" y="280" type="curve"/>
      <point x="270" y="270" type="line"/>
      <point x="250" y="290"/>
      <point x="240" y="300"/>
      <point x="220" y="300" type="curve" smooth="yes"/>
      <point x="50" y="300" type="line"/>
      <point x="50" y="200" type="line"/>
      <point x="220" y="200" type="line" smooth="yes"/>
      <point x="240" y="200"/>
      <point x="250" y="210"/>
      <point x="270" y="230" type="curve"/>
      <point x="280" y="220" type="line"/>
      <point x="260" y="200"/>
      <point x="250" y="190"/>
      <point x="250" y="170" type="curve" smooth="yes"/>
      <point x="250" y="40" type="line"/>
      <point x="350" y="40" type="line"/>
      <point x="350" y="170" type="line" smooth="yes"/>
      <point x="350" y="190"/>
      <point x="340" y="200"/>
      <point x="320" y="220" type="curve"/>
      <point x="330" y="230" type="line"/>
      <point x="350" y="210"/>
      <point x="350" y="200"/>
      <point x="380" y="200" type="curve" smooth="yes"/>
    </contour>
    <contour>
      <point x="550" y="0" type="line"/>
      <point x="550" y="100" type="line"/>
      <point x="50" y="100" type="line"/>
      <point x="50" y="0" type="line"/>
    </contour>
  </outline>
</glyph>
<glyph name="periodcentered" format="1">
  <advance width="202"/>
  <unicode hex="00B7"/>
  <outline>
    <contour>
      <point x="50" y="200" type="line"/>
      <point x="150" y="200" type="line"/>
      <point x="150" y="300" type="line"/>
      <point x="50" y="300" type="line"/>
    </contour>
  </outline>
</glyph>
<glyph name="onehalf" format="1">
  <advance width="800"/>
  <unicode hex="00BD"/>
  <outline>
    <contour>
      <point x="0" y="0" type="line"/>
      <point x="120" y="0" type="line"/>
      <point x="600" y="700" type="line"/>
      <point x="480" y="700" type="line"/>
    </contour>
    <contour>
      <point x="50" y="400" type="line"/>
      <point x="150" y="400" type="line"/>
      <point x="150" y="700" type="line"/>
      <point x="50" y="700" type="line"/>
    </contour>
    <contour>
      <point x="90" y="700" type="line"/>
      <point x="20" y="700" type="line"/>
      <point x="0" y="600" type="line"/>
      <point x="100" y="600" type="line"/>
    </contour>
    <contour>
      <point x="450" y="70" type="curve"/>
      <point x="450" y="0" type="line"/>
      <point x="750" y="0" type="line"/>
      <point x="750" y="90" type="line"/>
      <point x="590" y="90" type="line"/>
      <point x="570" y="90"/>
      <point x="560" y="90"/>
      <point x="540" y="80" type="curve"/>
      <point x="540" y="90" type="line"/>
      <point x="590" y="140"/>
      <point x="750" y="110"/>
      <point x="750" y="230" type="curve"/>
      <point x="750" y="320"/>
      <point x="680" y="360"/>
      <point x="600" y="360" type="curve" smooth="yes"/>
      <point x="510" y="360"/>
      <point x="450" y="310"/>
      <point x="450" y="220" type="curve"/>
      <point x="450" y="210" type="line"/>
      <point x="540" y="210" type="line"/>
      <point x="540" y="220" type="line"/>
      <point x="540" y="260"/>
      <point x="570" y="270"/>
      <point x="600" y="270" type="curve" smooth="yes"/>
      <point x="640" y="270"/>
      <point x="660" y="260"/>
      <point x="660" y="240" type="curve" smooth="yes"/>
      <point x="660" y="170"/>
      <point x="450" y="230"/>
    </contour>
  </outline>
</glyph>
<glyph name="threequarters" format="1">
  <advance width="800"/>
  <unicode hex="00BE"/>
  <outline>
    <contour>
      <point x="200" y="0" type="line"/>
      <point x="310" y="0" type="line"/>
      <point x="660" y="700" type="line"/>
      <point x="550" y="700" type="line"/>
    </contour>
    <contour>
      <point x="450" y="0" type="line"/>
      <point x="750" y="0" type="line"/>
      <point x="750" y="100" type="line"/>
      <point x="490" y="100" type="line"/>
      <point x="450" y="70" type="line"/>
    </contour>
    <contour>
      <point x="530" y="20" type="line"/>
      <point x="750" y="450" type="line" smooth="yes"/>
      <point x="640" y="450" type="line"/>
      <point x="450" y="70" type="line"/>
    </contour>
    <contour>
      <point x="750" y="-50" type="line"/>
      <point x="750" y="200" type="line"/>
      <point x="700" y="200" type="line"/>
      <point x="650" y="150" type="line"/>
      <point x="650" y="-50" type="line"/>
    </contour>
    <contour>
      <point x="355" y="500" type="curve"/>
      <point x="355" y="525"/>
      <point x="345" y="565"/>
      <point x="300" y="575" type="curve"/>
      <point x="355" y="615" type="line"/>
      <point x="355" y="700" type="line"/>
      <point x="50" y="700" type="line"/>
      <point x="50" y="605" type="line"/>
      <point x="200" y="605" type="line"/>
      <point x="200" y="595" type="line"/>
      <point x="160" y="575" type="line"/>
      <point x="160" y="540" type="line"/>
      <point x="220" y="540" type="line" smooth="yes"/>
      <point x="240" y="540"/>
      <point x="255" y="530"/>
      <point x="255" y="510" type="curve"/>
      <point x="255" y="485"/>
      <point x="235" y="475"/>
      <point x="200" y="475" type="curve" smooth="yes"/>
      <point x="165" y="475"/>
      <point x="145" y="485"/>
      <point x="145" y="510" type="curve"/>
      <point x="145" y="520" type="line"/>
      <point x="50" y="520" type="line"/>
      <point x="50" y="510" type="line"/>
      <point x="50" y="430"/>
      <point x="100" y="390"/>
      <point x="200" y="390" type="curve" smooth="yes"/>
      <point x="290" y="390"/>
      <point x="355" y="430"/>
    </contour>
  </outline>
</glyph>
<glyph name="AE" format="1">
  <advance width="600"/>
  <unicode hex="00C6"/>
  <outline>
    <contour>
      <point x="300" y="0" type="line"/>
      <point x="550" y="0" type="line"/>
      <point x="550" y="100" type="line"/>
      <point x="300" y="100" type="line"/>
    </contour>
    <contour>
      <point x="200" y="600" type="line"/>
      <point x="500" y="600" type="line"/>
      <point x="500" y="700" type="line"/>
      <point x="200" y="700" type="line"/>
    </contour>
    <contour>
      <point x="300" y="400" type="line"/>
      <point x="500" y="400" type="line"/>
      <point x="500" y="500" type="line"/>
      <point x="300" y="500" type="line"/>
    </contour>
    <contour>
      <point x="250" y="700" type="curve"/>
      <point x="160" y="670" type="line"/>
      <point x="220" y="570"/>
      <point x="250" y="470"/>
      <point x="250" y="350" type="curve" smooth="yes"/>
      <point x="250" y="0" type="line"/>
      <point x="350" y="0" type="line"/>
      <point x="350" y="350" type="line" smooth="yes"/>
      <point x="350" y="460"/>
      <point x="310" y="600"/>
    </contour>
    <contour>
      <point x="150" y="700" type="line"/>
      <point x="90" y="600"/>
      <point x="50" y="460"/>
      <point x="50" y="350" type="curve" smooth="yes"/>
      <point x="50" y="0" type="line"/>
      <point x="150" y="0" type="line"/>
      <point x="150" y="350" type="line" smooth="yes"/>
      <point x="150" y="470"/>
      <point x="180" y="570"/>
      <point x="240" y="670" type="curve"/>
      <point x="250" y="700" type="line"/>
    </contour>
    <contour>
      <point x="300" y="200" type="line"/>
      <point x="300" y="300" type="line"/>
      <point x="100" y="300" type="line"/>
      <point x="100" y="200" type="line"/>
    </contour>
  </outline>
</glyph>
<glyph name="Eth" format="1">
  <advance width="600"/>
  <unicode hex="00D0"/>
  <outline>
    <contour>
      <point x="250" y="200" type="line"/>
      <point x="250" y="300" type="line"/>
      <point x="0" y="300" type="line"/>
      <point x="0" y="200" type="line"/>
    </contour>
    <component base="D"/>
  </outline>
</glyph>
<glyph name="Oslash" format="1">
  <advance width="600"/>
  <unicode hex="00D8"/>
  <outline>
    <contour>
      <point x="50" y="0" type="line"/>
      <point x="130" y="-50" type="line"/>
      <point x="550" y="700" type="line"/>
      <point x="470" y="750" type="line"/>
    </contour>
    <component base="O"/>
  </outline>
</glyph>
<glyph name="ae" format="1">
  <advance width="600"/>
  <unicode hex="00E6"/>
  <outline>
    <contour>
      <point x="50" y="370" type="curve"/>
      <point x="50" y="350" type="line"/>
      <point x="150" y="350" type="line"/>
      <point x="150" y="370" type="line"/>
      <point x="150" y="410"/>
      <point x="170" y="410"/>
      <point x="200" y="410" type="curve" smooth="yes"/>
      <point x="230" y="410"/>
      <point x="250" y="400"/>
      <point x="250" y="360" type="curve" smooth="yes"/>
      <point x="250" y="250" type="line"/>
      <point x="350" y="250" type="line"/>
      <point x="350" y="360" type="line"/>
      <point x="350" y="450"/>
      <point x="280" y="510"/>
      <point x="200" y="510" type="curve" smooth="yes"/>
      <point x="110" y="510"/>
      <point x="50" y="460"/>
    </contour>
    <contour>
      <point x="40" y="120" type="curve"/>
      <point x="40" y="40"/>
      <point x="90" y="-10"/>
      <point x="180" y="-10" type="curve"/>
      <point x="260" y="-10"/>
      <point x="350" y="50"/>
      <point x="350" y="140" type="curve"/>
      <point x="250" y="140" type="line"/>
      <point x="250" y="100"/>
      <point x="220" y="90"/>
      <point x="190" y="90" type="curve" smooth="yes"/>
      <point x="160" y="90"/>
      <point x="140" y="100"/>
      <point x="140" y="140" type="curve"/>
      <point x="140" y="220"/>
      <point x="230" y="200"/>
      <point x="250" y="220" type="curve"/>
      <point x="250" y="330" type="line"/>
      <point x="250" y="250"/>
      <point x="40" y="320"/>
    </contour>
    <contour>
      <point x="350" y="360" type="line" smooth="yes"/>
      <point x="350" y="400"/>
      <point x="370" y="410"/>
      <point x="400" y="410" type="curve" smooth="yes"/>
      <point x="430" y="410"/>
      <point x="450" y="400"/>
      <point x="450" y="360" type="curve" smooth="yes"/>
      <point x="450" y="300" type="line"/>
      <point x="350" y="300" type="line"/>
    </contour>
    <contour>
      <point x="550" y="130" type="curve"/>
      <point x="550" y="150" type="line"/>
      <point x="450" y="150" type="line"/>
      <point x="450" y="130" type="line"/>
      <point x="450" y="90"/>
      <point x="430" y="90"/>
      <point x="400" y="90" type="curve" smooth="yes"/>
      <point x="370" y="90"/>
      <point x="350" y="100"/>
      <point x="350" y="140" type="curve" smooth="yes"/>
      <point x="350" y="200" type="line"/>
      <point x="550" y="200" type="line"/>
      <point x="550" y="360" type="line" smooth="yes"/>
      <point x="550" y="450"/>
      <point x="490" y="510"/>
      <point x="400" y="510" type="curve" smooth="yes"/>
      <point x="320" y="510"/>
      <point x="250" y="450"/>
      <point x="250" y="360" type="curve" smooth="yes"/>
      <point x="250" y="140" type="line"/>
      <point x="250" y="50"/>
      <point x="320" y="-10"/>
      <point x="400" y="-10" type="curve" smooth="yes"/>
      <point x="490" y="-10"/>
      <point x="550" y="40"/>
    </contour>
  </outline>
</glyph>
<glyph name="oslash" format="1">
  <advance width="600"/>
  <unicode hex="00F8"/>
  <outline>
    <contour>
      <point x="50" y="0" type="line"/>
      <point x="130" y="-60" type="line"/>
      <point x="550" y="500" type="line"/>
      <point x="470" y="560" type="line"/>
    </contour>
    <component base="o"/>
  </outline>
</glyph>
<glyph name="oe" format="1">
  <advance width="600"/>
  <unicode hex="0153"/>
  <outline>
    <contour>
      <point x="250" y="360" type="curve" smooth="yes"/>
      <point x="250" y="140" type="line" smooth="yes"/>
      <point x="250" y="100"/>
      <point x="230" y="90"/>
      <point x="200" y="90" type="curve"/>
      <point x="170" y="90"/>
      <point x="150" y="100"/>
      <point x="150" y="140" type="curve" smooth="yes"/>
      <point x="150" y="360" type="line" smooth="yes"/>
      <point x="150" y="400"/>
      <point x="170" y="410"/>
      <point x="200" y="410" type="curve"/>
      <point x="230" y="410"/>
      <point x="250" y="400"/>
    </contour>
    <contour>
      <point x="350" y="140" type="curve" smooth="yes"/>
      <point x="350" y="360" type="line"/>
      <point x="350" y="450"/>
      <point x="280" y="510"/>
      <point x="200" y="510" type="curve"/>
      <point x="120" y="510"/>
      <point x="50" y="450"/>
      <point x="50" y="360" type="curve"/>
      <point x="50" y="140" type="line"/>
      <point x="50" y="50"/>
      <point x="120" y="-10"/>
      <point x="200" y="-10" type="curve"/>
      <point x="280" y="-10"/>
      <point x="350" y="50"/>
    </contour>
    <contour>
      <point x="550" y="360" type="line" smooth="yes"/>
      <point x="550" y="450"/>
      <point x="490" y="510"/>
      <point x="400" y="510" type="curve" smooth="yes"/>
      <point x="320" y="510"/>
      <point x="250" y="450"/>
      <point x="250" y="360" type="curve" smooth="yes"/>
      <point x="250" y="250" type="line"/>
      <point x="350" y="250" type="line"/>
      <point x="350" y="360" type="line" smooth="yes"/>
      <point x="350" y="400"/>
      <point x="370" y="410"/>
      <point x="400" y="410" type="curve" smooth="yes"/>
      <point x="430" y="410"/>
      <point x="450" y="400"/>
      <point x="450" y="360" type="curve" smooth="yes"/>
      <point x="450" y="280" type="line"/>
      <point x="550" y="280" type="line"/>
    </contour>
    <contour>
      <point x="550" y="130" type="curve"/>
      <point x="550" y="150" type="line"/>
      <point x="450" y="150" type="line"/>
      <point x="450" y="130" type="line"/>
      <point x="450" y="90"/>
      <point x="430" y="90"/>
      <point x="400" y="90" type="curve" smooth="yes"/>
      <point x="370" y="90"/>
      <point x="350" y="100"/>
      <point x="350" y="140" type="curve" smooth="yes"/>
      <point x="350" y="250" type="line"/>
      <point x="250" y="250" type="line"/>
      <point x="250" y="140" type="line"/>
      <point x="250" y="50"/>
      <point x="320" y="-10"/>
      <point x="400" y="-10" type="curve" smooth="yes"/>
      <point x="490" y="-10"/>
      <point x="550" y="40"/>
    </contour>
    <contour>
      <point x="300" y="200" type="line"/>
      <point x="550" y="200" type="line"/>
      <point x="550" y="300" type="line"/>
      <point x="300" y="300" type="line"/>
    </contour>
  </outline>
</glyph>
<glyph name="circumflex" format="1">
  <advance width="200"/>
  <unicode hex="02C6"/>
  <outline>
    <contour>
      <point x="-10" y="550" type="line"/>
      <point x="60" y="550" type="line"/>
      <point x="110" y="650" type="line"/>
      <point x="110" y="700" type="line"/>
      <point x="70" y="700" type="line"/>
      <point x="-10" y="590" type="line"/>
    </contour>
    <contour>
      <point x="210" y="550" type="line"/>
      <point x="210" y="590" type="line"/>
      <point x="130" y="700" type="line"/>
      <point x="90" y="700" type="line"/>
      <point x="90" y="650" type="line"/>
      <point x="140" y="550" type="line"/>
    </contour>
    <contour>
      <point x="100" y="500" type="move" name="_top"/>
    </contour>
  </outline>
</glyph>
<glyph name="endash" format="1">
  <advance width="600"/>
  <unicode hex="2013"/>
  <outline>
    <contour>
      <point x="550" y="200" type="line"/>
      <point x="550" y="300" type="line"/>
      <point x="50" y="300" type="line"/>
      <point x="50" y="200" type="line"/>
    </contour>
  </outline>
</glyph>
<glyph name="Square_with_Upper_Right_To_Lower_Left_Fill" format="1">
  <advance width="1000"/>
  <outline>
    <contour>
      <point x="850" y="-100" type="line"/>
      <point x="150" y="-100" type="line"/>
      <point x="150" y="600" type="line"/>
      <point x="850" y="600" type="line"/>
    </contour>
    <contour>
      <point x="950" y="-200" type="line"/>
      <point x="950" y="700" type="line"/>
      <point x="50" y="700" type="line"/>
      <point x="50" y="-200" type="line"/>
    </contour>
    <contour>
      <point x="925" y="605" type="line"/>
      <point x="855" y="675" type="line"/>
      <point x="75" y="-105" type="line"/>
      <point x="145" y="-175" type="line"/>
    </contour>
    <contour>
      <point x="690" y="650" type="line"/>
      <point x="550" y="650" type="line"/>
      <point x="100" y="200" type="line"/>
      <point x="100" y="60" type="line"/>
    </contour>
    <contour>
      <point x="410" y="650" type="line"/>
      <point x="285" y="665" type="line"/>
      <point x="95" y="475" type="line"/>
      <point x="95" y="335" type="line"/>
    </contour>
    <contour>
      <point x="310" y="-150" type="line"/>
      <point x="450" y="-150" type="line"/>
      <point x="900" y="300" type="line"/>
      <point x="900" y="440" type="line"/>
    </contour>
    <contour>
      <point x="590" y="-150" type="line"/>
      <point x="715" y="-165" type="line"/>
      <point x="905" y="25" type="line"/>
      <point x="905" y="165" type="line"/>
    </contour>
  </outline>
</glyph>
<glyph name="black_large_square" format="1">
  <advance width="1000"/>
  <outline>
    <contour>
      <point x="50" y="-200" type="line"/>
      <point x="950" y="-200" type="line"/>
      <point x="950" y="700" type="line"/>
      <point x="50" y="700" type="line"/>
    </contour>
  </outline>
</glyph>
<glyph name="g.alt" format="1">
  <advance width="600"/>
  <outline>
    <contour>
      <point x="350" y="340" type="curve"/>
      <point x="350" y="360" type="line"/>
      <point x="350" y="450"/>
      <point x="280" y="510"/>
      <point x="200" y="510" type="curve"/>
      <point x="120" y="510"/>
      <point x="50" y="450"/>
      <point x="50" y="360" type="curve"/>
      <point x="50" y="340" type="line"/>
      <point x="50" y="250"/>
      <point x="120" y="190"/>
      <point x="200" y="190" type="curve"/>
      <point x="280" y="190"/>
      <point x="350" y="250"/>
    </contour>
    <contour>
      <point x="190" y="240" type="line"/>
      <point x="100" y="240"/>
      <point x="50" y="210"/>
      <point x="50" y="130" type="curve" smooth="yes"/>
      <point x="50" y="50"/>
      <point x="110.0" y="0.0"/>
      <point x="200.0" y="0.0" type="curve"/>
      <point x="310.0" y="0.0" type="line"/>
      <point x="310.0" y="100.0" type="line"/>
      <point x="248.0" y="100.0" type="line"/>
      <point x="200" y="100" type="line" smooth="yes"/>
      <point x="160" y="100"/>
      <point x="150.0" y="120.0"/>
      <point x="150.0" y="150.0" type="curve" smooth="yes"/>
      <point x="150.0" y="180.0"/>
      <point x="160.0" y="190.0"/>
      <point x="190.0" y="190.0" type="curve"/>
      <point x="210.0" y="190.0" type="line"/>
      <point x="210" y="240" type="line"/>
    </contour>
    <contour>
      <point x="190" y="0" type="curve" smooth="yes"/>
      <point x="410" y="0" type="line" smooth="yes"/>
      <point x="450" y="0"/>
      <point x="460" y="-20"/>
      <point x="460" y="-50" type="curve"/>
      <point x="460" y="-80"/>
      <point x="450" y="-100"/>
      <point x="410" y="-100" type="curve" smooth="yes"/>
      <point x="190" y="-100" type="line" smooth="yes"/>
      <point x="150" y="-100"/>
      <point x="140" y="-80"/>
      <point x="140" y="-50" type="curve"/>
      <point x="140" y="-20"/>
      <point x="150" y="0"/>
    </contour>
    <contour>
      <point x="410.0" y="100.0" type="curve"/>
      <point x="248.0" y="100.0" type="line"/>
      <point x="190" y="50" type="line"/>
      <point x="100" y="50"/>
      <point x="40" y="10"/>
      <point x="40" y="-70" type="curve"/>
      <point x="40" y="-140"/>
      <point x="100.0" y="-200.0"/>
      <point x="190.0" y="-200.0" type="curve"/>
      <point x="410.0" y="-200.0" type="line"/>
      <point x="500.0" y="-200.0"/>
      <point x="560.0" y="-130.0"/>
      <point x="560.0" y="-50.0" type="curve"/>
      <point x="560.0" y="30.0"/>
      <point x="500.0" y="100.0"/>
    </contour>
    <contour>
      <point x="320" y="420" type="curve"/>
      <point x="350" y="360" type="line"/>
      <point x="350" y="400"/>
      <point x="370" y="410"/>
      <point x="400" y="410" type="curve" smooth="yes"/>
      <point x="430" y="410"/>
      <point x="450" y="400"/>
      <point x="450" y="360" type="curve"/>
      <point x="450" y="200" type="line"/>
      <point x="550" y="200" type="line"/>
      <point x="550" y="390" type="line"/>
      <point x="550" y="460"/>
      <point x="500" y="510"/>
      <point x="430" y="510" type="curve" smooth="yes"/>
      <point x="360" y="510"/>
      <point x="320" y="480"/>
    </contour>
    <contour>
      <point x="260" y="360" type="curve" smooth="yes"/>
      <point x="260" y="340" type="line" smooth="yes"/>
      <point x="260" y="300"/>
      <point x="240" y="280"/>
      <point x="200" y="280" type="curve"/>
      <point x="160" y="280"/>
      <point x="140" y="300"/>
      <point x="140" y="340" type="curve" smooth="yes"/>
      <point x="140" y="360" type="line" smooth="yes"/>
      <point x="140" y="400"/>
      <point x="160" y="420"/>
      <point x="200" y="420" type="curve"/>
      <point x="240" y="420"/>
      <point x="260" y="400"/>
    </contour>
  </outline>
</glyph>
<glyph name="three.sup" format="1">
  <advance width="400"/>
  <outline>
    <contour>
      <point x="355" y="500" type="curve"/>
      <point x="355" y="525"/>
      <point x="345" y="565"/>
      <point x="300" y="575" type="curve"/>
      <point x="355" y="615" type="line"/>
      <point x="355" y="700" type="line"/>
      <point x="50" y="700" type="line"/>
      <point x="50" y="605" type="line"/>
      <point x="170" y="605" type="line"/>
      <point x="180" y="605"/>
      <point x="200" y="610"/>
      <point x="215" y="615" type="curve"/>
      <point x="220" y="605" type="line"/>
      <point x="160" y="575" type="line"/>
      <point x="160" y="540" type="line"/>
      <point x="220" y="540" type="line" smooth="yes"/>
      <point x="240" y="540"/>
      <point x="255" y="530"/>
      <point x="255" y="510" type="curve"/>
      <point x="255" y="485"/>
      <point x="235" y="475"/>
      <point x="200" y="475" type="curve" smooth="yes"/>
      <point x="165" y="475"/>
      <point x="145" y="485"/>
      <point x="145" y="510" type="curve"/>
      <point x="145" y="520" type="line"/>
      <point x="50" y="520" type="line"/>
      <point x="50" y="510" type="line"/>
      <point x="50" y="430"/>
      <point x="100" y="390"/>
      <point x="200" y="390" type="curve" smooth="yes"/>
      <point x="290" y="390"/>
      <point x="355" y="430"/>
    </contour>
  </outline>
</glyph>
<glyph name="zero.sup" format="1">
  <advance width="400"/>
  <outline>
    <contour>
      <point x="270" y="550" type="curve"/>
      <point x="270" y="500"/>
      <point x="250" y="480"/>
      <point x="200" y="480" type="curve"/>
      <point x="150" y="480"/>
      <point x="130" y="500"/>
      <point x="130" y="550" type="curve"/>
      <point x="130" y="600"/>
      <point x="150" y="620"/>
      <point x="200" y="620" type="curve"/>
      <point x="250" y="620"/>
      <point x="270" y="600"/>
    </contour>
    <contour>
      <point x="360" y="550" type="curve"/>
      <point x="360" y="660"/>
      <point x="300" y="710"/>
      <point x="200" y="710" type="curve"/>
      <point x="100" y="710"/>
      <point x="40" y="660"/>
      <point x="40" y="550" type="curve"/>
      <point x="40" y="440"/>
      <point x="100" y="390"/>
      <point x="200" y="390" type="curve"/>
      <point x="300" y="390"/>
      <point x="360" y="440"/>
    </contour>
  </outline>
</glyph>
